<svg id="Capa_1" enable-background="new 0 0 512.021 512.021" height="512" viewBox="0 0 512.021 512.021" width="512" xmlns="http://www.w3.org/2000/svg"><path d="m267.441 87.17c3.554 2.371 8.33 2.178 11.699-.435 3.303-2.562 4.644-7.052 3.343-11.017-1.326-4.043-5.233-6.863-9.488-6.863-4.183 0-7.999 2.699-9.411 6.631-1.538 4.284.091 9.153 3.857 11.684z"/><path d="m512.021 169.737c0-11.933-2.461-25.95-8.899-36.234-13.111-25.075-39.362-42.24-69.563-42.247-.007 0-.013-.001-.02-.001s-.013.001-.02.001c-30.169.007-56.397 17.136-69.522 42.168-6.518 10.21-8.94 26.368-8.94 36.313 0 7.59 1.099 15.13 3.265 22.411 4.724 15.872 14.627 30.145 27.886 40.189 4.29 3.25 8.839 6.02 13.594 8.293v29.087c0 5.523 4.478 10 10 10s10-4.477 10-10v-22.698c9.051 1.589 18.419 1.623 27.469 0v149.096c0 17.198-11.647 31.727-27.468 36.114v-38.313c0-.007-.001-.013-.001-.019v-36.117c0-5.523-4.478-10-10-10s-10 4.477-10 10v26.136h-61.869v-4.44c0-12.05-7.711-22.616-19.187-26.291l-9.114-2.919v-96.76c0-8.919.204-17.872-.324-26.78-.316-5.335-.509-11.042-1.79-16.248-2.664-16.432-7.358-28.43-11.179-35.244l2.151-29.556c.426-5.854 5.357-10.44 11.228-10.44h9.947c8.78 0 17.205-3.724 23.114-10.215l14.688-16.134c5.028-5.525 7.798-12.681 7.798-20.15 0-16.506-13.429-29.934-29.935-29.934h-25.597c-3.09 0-6.035-1.329-8.079-3.646l-3.328-3.771c-5.84-6.616-14.25-10.411-23.074-10.411h-29.218l-23.657-25.699c-2.791-3.032-7.154-4.042-10.992-2.543-3.838 1.498-6.365 5.196-6.365 9.316v44.959l-24.602 66.32-13.807 37.217c-2.225 6.003-5.96 11.504-10.72 15.788l-64.48 58.047c-10.039 7.589-18.227 17.198-24.179 28.02-.203.297-.397.603-.57.926-4.417 8.262-7.485 17.208-9.114 26.417-1.412 7.848-1.638 15.935-1.271 23.894-5.27.56-11.736-.084-17.799-2.848-8.071-3.679-13.695-10.3-16.718-19.678-7.763-24.09 13.309-46.368 13.521-46.59 3.833-3.955 3.746-10.268-.198-14.116-3.955-3.858-10.284-3.778-14.142.174-1.218 1.249-29.711 31-18.218 66.667 6.002 18.625 18.244 27.542 27.458 31.742 7.045 3.211 14.999 4.837 22.696 4.837 2.263 0 4.501-.149 6.69-.431 3.89 13.318 11.048 25.534 21.092 35.639 1.696 1.706 3.53 3.327 5.364 4.883h-5.703c-31.154 0-56.5 25.346-56.5 56.5v3.17c0 5.523 4.478 10 10 10h28.567c-1.76 4.046-2.741 8.506-2.741 13.192 0 18.302 14.89 33.191 33.191 33.191s33.191-14.89 33.191-33.191c0-4.686-.982-9.146-2.741-13.192h208.193c-1.76 4.046-2.741 8.506-2.741 13.192 0 18.302 14.89 33.191 33.191 33.191s33.191-14.89 33.191-33.191c0-4.686-.982-9.146-2.741-13.192h17.423c.027 0 .052-.004.079-.004 31.652-.043 57.389-25.805 57.389-57.467v-155.484c4.756-2.274 9.308-5.045 13.6-8.296 13.258-10.044 23.162-24.316 27.886-40.188 0-.001 0-.002.001-.003 2.164-7.28 3.263-14.819 3.263-22.409zm-286.279 199.041c-2.518-9.834-10.384-17.417-20.138-19.969l36.358-39.242 6.135 58.6c.517 5.722 2.213 11.047 4.838 15.749h-26.333v-8.299c0-2.348-.297-4.641-.86-6.839zm63.757-137.703c.225 5.843.133 11.699.133 17.545-2.584 1.528-5.538 2.345-8.6 2.345-9.362 0-16.979-7.617-16.979-16.979s7.616-16.979 16.979-16.979c2.634 0 5.163.59 7.464 1.723.478 3.85.827 7.969 1.003 12.345zm-80.698-116.744c10.869 5.489 18.145 16.813 18.145 29.437 0 11.739-6.324 22.682-16.504 28.556-6.399 3.693-10.359 10.692-10.335 18.304 0 7.237-5.893 13.125-13.135 13.125-5.448 0-10.222-3.405-12.177-8.238 4.525-5.316 8.147-11.468 10.572-18.016l14.178-38.22zm-105.039 145.788c.243-.182.478-.374.703-.577l55.44-49.908c6.042 8.543 16 14.12 27.067 14.12 18.271 0 33.135-14.859 33.135-33.125 0-.011 0-.091 0-.102-.001-.398.138-.768.331-.88 16.351-9.435 26.508-27.015 26.508-45.878 0-21.043-12.59-39.84-31.164-48.258l8.616-23.227c.413-1.113.624-2.291.624-3.478v-21.126l9.271 10.071c1.894 2.057 4.562 3.228 7.357 3.228h33.604c3.09 0 6.035 1.329 8.079 3.646l3.328 3.771c5.84 6.616 14.25 10.411 23.074 10.411h25.597c5.478 0 9.935 4.457 9.935 9.934 0 2.479-.919 4.854-2.588 6.687l-14.688 16.134c-2.129 2.338-5.163 3.679-8.325 3.679h-9.947c-16.298 0-29.992 12.733-31.175 28.988l-2.385 32.767c-.166 2.286.408 4.487 1.718 6.368 1.662 2.479 3.928 7.141 6.028 13.761-.954-.075-1.912-.117-2.873-.117-20.39 0-36.979 16.589-36.979 36.979s16.589 36.979 36.979 36.979c2.928 0 5.81-.345 8.6-1.01v87.61c0 4.348 2.81 8.197 6.95 9.523l16.064 5.145c3.162 1.013 5.286 3.924 5.286 7.244v4.437h-30.711c-10.068 0-18.327-7.563-19.211-17.591-.004-.054-.01-.109-.016-.163l-8.438-80.602c-.408-3.903-3.063-7.207-6.785-8.447-3.726-1.239-7.827-.188-10.495 2.691l-29.733 32.09c-1.041-16.561-9.791-32.335-24.889-41.839-16.597-10.448-37.524-10.969-54.619-1.364-4.814 2.705-6.525 8.802-3.819 13.617 2.706 4.816 8.804 6.524 13.616 3.82 10.694-6.01 23.786-5.683 34.168.854 15.185 9.559 20.113 29.254 11.22 44.839l-9.959 17.452c-1.823 3.207-1.698 7.261.287 10.354 1.649 2.57 4.15 3.823 7.007 4.578 3.647.963 7.294 1.926 10.941 2.89 1.48.391 2.959.782 4.439 1.172 3.336.88 5.665 3.905 5.665 7.354v8.299h-34.4c-12.001-.01-21.761-9.777-21.761-21.78 0-5.523-4.478-10-10-10s-10 4.477-10 10c0 7.917 2.214 15.328 6.055 21.644-11.778-.718-22.712-4.609-31.943-10.847 13.367-11.243 21.484-28.063 21.484-45.908 0-23.855-14.104-44.93-35.021-54.462 3.661-4.651 7.933-8.848 12.748-12.447zm-26.884 68.965c-1.532-10.376-1.028-21.677 1.692-31.784.672-2.476 1.482-4.91 2.421-7.29 14.873 5.936 25.044 20.476 25.044 37.015 0 12.721-6.197 24.661-16.247 32.101-6.577-8.42-11.114-18.504-12.834-29.516-.026-.175-.05-.351-.076-.526zm3.445 74.832h319.479v29.67h-355.338c3.207-16.873 18.067-29.67 35.859-29.67zm25.709 62.862c0 7.274-5.918 13.191-13.191 13.191s-13.191-5.917-13.191-13.191 5.918-13.192 13.191-13.192 13.191 5.918 13.191 13.192zm269.089 0c0 7.274-5.918 13.191-13.191 13.191s-13.191-5.917-13.191-13.191 5.918-13.192 13.191-13.192 13.191 5.918 13.191 13.192zm48.418-354.649v4.808c0 5.523 4.478 10 10 10s10-4.477 10-10v-4.808c15.031 2.602 28.118 10.946 36.892 22.701l-4.286 2.179c-4.923 2.503-6.885 8.523-4.382 13.446 1.765 3.471 5.277 5.47 8.922 5.47 1.524 0 3.072-.35 4.524-1.088l4.264-2.168c1.652 5.402 2.547 11.132 2.547 17.068 0 3.208-.264 6.403-.785 9.559h-50.856l-9.396-24.175c-2-5.148-7.8-7.696-12.943-5.698-5.148 2-7.699 7.795-5.699 12.943l6.58 16.93h-43.078c-.521-3.156-.785-6.351-.785-9.559 0-5.935.895-11.664 2.547-17.066l4.26 2.166c1.453.738 3 1.088 4.524 1.088 3.644 0 7.157-1.999 8.922-5.47 2.503-4.923.541-10.943-4.382-13.446l-4.283-2.177c8.774-11.756 21.862-20.101 36.893-22.703zm16.095 115.763c-4.052.422-8.125.413-12.178.002-18.503-1.967-35.022-12.788-44.356-28.597h50.36c.026 0 .052.003.078.003.021 0 .043-.003.064-.003h50.375c-9.332 15.805-25.844 26.624-44.343 28.595z"/><path d="m400.571 317.571c3.496 8.529 16.133 7.828 18.8-.92 2.585-8.477-6.83-15.927-14.495-11.601-4.333 2.445-6.219 7.929-4.305 12.521z"/></svg>